# xmcd
#
# Track frame offsets: 
#        150
#        10155
#        25342
#        42850
#        69365
#        83645
#        97035
#        111830
#        129655
#        144480
#        164265
#        176870
#
# Disc length: 2555 seconds
#
# Revision: 3
# Processed by: cddbd v1.5.2PL0 Copyright (c) Steve Scherf et al.
# Submitted via: ExactAudioCopy v0.99pb4
#
DISCID=9c09f90c
DTITLE=3 Hurel - 3 Hurel Volume  2
DYEAR=1900
DGENRE=Folk
TTITLE0=Kol Basti
TTITLE1=Aglarsa Anam Aglar
TTITLE2=Omur Biter Yol Bitmez
TTITLE3=Sevenler Aglarmis
TTITLE4=Yara
TTITLE5=Doner Dunya
TTITLE6=Hoptirinom
TTITLE7=Mutluluk Bizim Olsun
TTITLE8=Canim Kurban
TTITLE9=Gonul Sabreyle Sabreyle
TTITLE10=Kucuk Yaramaz
TTITLE11=Agit
EXTD=
EXTT0=
EXTT1=
EXTT2=
EXTT3=
EXTT4=
EXTT5=
EXTT6=
EXTT7=
EXTT8=
EXTT9=
EXTT10=
EXTT11=
PLAYORDER=
